<svg xmlns="http://www.w3.org/2000/svg" width="12" height="12" viewBox="0 0 12 12">
    <g fill="none" fill-rule="evenodd">
        <g fill="#004E97">
            <g>
                <path d="M10.008 0C11.108 0 12 .892 12 1.992v8.016c0 1.1-.892 1.992-1.992 1.992H1.992C.892 12 0 11.108 0 10.008V1.992C0 .892.892 0 1.992 0zm0 .92H2.004C1.412.92.932 1.4.932 1.991l-.013 8.016c0 .593.48 1.073 1.073 1.073h8.016c.593 0 1.073-.48 1.073-1.073V1.992c0-.593-.48-1.073-1.073-1.073zM5.88 7.66c.369 0 .668.298.672.666.002.272-.16.518-.41.624-.251.106-.54.05-.734-.141-.193-.192-.252-.48-.148-.732.103-.252.348-.416.62-.416zM5.633 2.78c.772-.126 1.523.326 1.773 1.068S7.332 5.403 6.64 5.77c-.187.108-.298.312-.289.527v.392c0 .254-.205.46-.46.46-.253 0-.459-.206-.459-.46v-.376c-.008-.553.29-1.065.775-1.33.27-.143.413-.446.353-.745-.073-.339-.387-.57-.732-.538-.344.032-.61.317-.62.664 0 .253-.205.46-.46.46-.123 0-.241-.05-.327-.139-.087-.088-.134-.207-.132-.33.002-.784.57-1.45 1.343-1.576z" transform="translate(-311 -33) translate(311 33)"/>
            </g>
        </g>
    </g>
</svg>
